<?xml version="1.0" encoding="UTF-8"?>
<!DOCTYPE svg PUBLIC "-//W3C//DTD SVG 1.1//EN" "http://www.w3.org/Graphics/SVG/1.1/DTD/svg11.dtd">
<svg version="1.2" width="165.1mm" height="88.9mm" viewBox="0 0 16510 8890" preserveAspectRatio="xMidYMid" fill-rule="evenodd" stroke-width="28.222" stroke-linejoin="round" xmlns="http://www.w3.org/2000/svg" xmlns:ooo="http://xml.openoffice.org/svg/export" xmlns:xlink="http://www.w3.org/1999/xlink" xmlns:presentation="http://sun.com/xmlns/staroffice/presentation" xmlns:smil="http://www.w3.org/2001/SMIL20/" xmlns:anim="urn:oasis:names:tc:opendocument:xmlns:animation:1.0" xml:space="preserve">
 <defs class="ClipPathGroup">
  <clipPath id="presentation_clip_path" clipPathUnits="userSpaceOnUse">
   <rect x="0" y="0" width="16510" height="8890"/>
  </clipPath>
  <clipPath id="presentation_clip_path_shrink" clipPathUnits="userSpaceOnUse">
   <rect x="16" y="8" width="16477" height="8873"/>
  </clipPath>
 </defs>
 <defs class="TextShapeIndex">
  <g ooo:slide="id1" ooo:id-list="id3 id4 id5 id6 id7 id8 id9 id10 id11 id12 id13 id14 id15 id16 id17 id18 id19 id20 id21 id22 id23"/>
 </defs>
 <defs class="EmbeddedBulletChars">
  <g id="bullet-char-template-57356" transform="scale(0.00048828125,-0.00048828125)">
   <path d="M 580,1141 L 1163,571 580,0 -4,571 580,1141 Z"/>
  </g>
  <g id="bullet-char-template-57354" transform="scale(0.00048828125,-0.00048828125)">
   <path d="M 8,1128 L 1137,1128 1137,0 8,0 8,1128 Z"/>
  </g>
  <g id="bullet-char-template-10146" transform="scale(0.00048828125,-0.00048828125)">
   <path d="M 174,0 L 602,739 174,1481 1456,739 174,0 Z M 1358,739 L 309,1346 659,739 1358,739 Z"/>
  </g>
  <g id="bullet-char-template-10132" transform="scale(0.00048828125,-0.00048828125)">
   <path d="M 2015,739 L 1276,0 717,0 1260,543 174,543 174,936 1260,936 717,1481 1274,1481 2015,739 Z"/>
  </g>
  <g id="bullet-char-template-10007" transform="scale(0.00048828125,-0.00048828125)">
   <path d="M 0,-2 C -7,14 -16,27 -25,37 L 356,567 C 262,823 215,952 215,954 215,979 228,992 255,992 264,992 276,990 289,987 310,991 331,999 354,1012 L 381,999 492,748 772,1049 836,1024 860,1049 C 881,1039 901,1025 922,1006 886,937 835,863 770,784 769,783 710,716 594,584 L 774,223 C 774,196 753,168 711,139 L 727,119 C 717,90 699,76 672,76 641,76 570,178 457,381 L 164,-76 C 142,-110 111,-127 72,-127 30,-127 9,-110 8,-76 1,-67 -2,-52 -2,-32 -2,-23 -1,-13 0,-2 Z"/>
  </g>
  <g id="bullet-char-template-10004" transform="scale(0.00048828125,-0.00048828125)">
   <path d="M 285,-33 C 182,-33 111,30 74,156 52,228 41,333 41,471 41,549 55,616 82,672 116,743 169,778 240,778 293,778 328,747 346,684 L 369,508 C 377,444 397,411 428,410 L 1163,1116 C 1174,1127 1196,1133 1229,1133 1271,1133 1292,1118 1292,1087 L 1292,965 C 1292,929 1282,901 1262,881 L 442,47 C 390,-6 338,-33 285,-33 Z"/>
  </g>
  <g id="bullet-char-template-9679" transform="scale(0.00048828125,-0.00048828125)">
   <path d="M 813,0 C 632,0 489,54 383,161 276,268 223,411 223,592 223,773 276,916 383,1023 489,1130 632,1184 813,1184 992,1184 1136,1130 1245,1023 1353,916 1407,772 1407,592 1407,412 1353,268 1245,161 1136,54 992,0 813,0 Z"/>
  </g>
  <g id="bullet-char-template-8226" transform="scale(0.00048828125,-0.00048828125)">
   <path d="M 346,457 C 273,457 209,483 155,535 101,586 74,649 74,723 74,796 101,859 155,911 209,963 273,989 346,989 419,989 480,963 531,910 582,859 608,796 608,723 608,648 583,586 532,535 482,483 420,457 346,457 Z"/>
  </g>
  <g id="bullet-char-template-8211" transform="scale(0.00048828125,-0.00048828125)">
   <path d="M -4,459 L 1135,459 1135,606 -4,606 -4,459 Z"/>
  </g>
  <g id="bullet-char-template-61548" transform="scale(0.00048828125,-0.00048828125)">
   <path d="M 173,740 C 173,903 231,1043 346,1159 462,1274 601,1332 765,1332 928,1332 1067,1274 1183,1159 1299,1043 1357,903 1357,740 1357,577 1299,437 1183,322 1067,206 928,148 765,148 601,148 462,206 346,322 231,437 173,577 173,740 Z"/>
  </g>
 </defs>
 <g>
  <g id="id2" class="Master_Slide">
   <g id="bg-id2" class="Background"/>
   <g id="bo-id2" class="BackgroundObjects"/>
  </g>
 </g>
 <g class="SlideGroup">
  <g>
   <g id="container-id1">
    <g id="id1" class="Slide" clip-path="url(#presentation_clip_path)">
     <g class="Page">
      <g class="com.sun.star.drawing.CustomShape">
       <g id="id3">
        <rect class="BoundingBox" stroke="none" fill="none" x="632" y="1551" width="1704" height="1704"/>
        <path fill="none" stroke="rgb(0,0,0)" stroke-width="51" stroke-linejoin="round" d="M 1484,3228 L 658,3228 658,1577 2309,1577 2309,3228 1484,3228 Z"/>
       </g>
      </g>
      <g class="com.sun.star.drawing.CustomShape">
       <g id="id4">
        <rect class="BoundingBox" stroke="none" fill="none" x="4932" y="1551" width="1704" height="1704"/>
        <path fill="none" stroke="rgb(0,0,0)" stroke-width="51" stroke-linejoin="round" d="M 5784,3228 L 4958,3228 4958,1577 6609,1577 6609,3228 5784,3228 Z"/>
       </g>
      </g>
      <g class="com.sun.star.drawing.CustomShape">
       <g id="id5">
        <rect class="BoundingBox" stroke="none" fill="none" x="632" y="1551" width="1704" height="1704"/>
        <path fill="none" stroke="rgb(0,0,0)" stroke-width="51" stroke-linejoin="round" d="M 1484,3228 L 658,3228 658,1577 2309,1577 2309,3228 1484,3228 Z"/>
       </g>
      </g>
      <g class="com.sun.star.drawing.CustomShape">
       <g id="id6">
        <rect class="BoundingBox" stroke="none" fill="none" x="4932" y="1551" width="1704" height="1704"/>
        <path fill="none" stroke="rgb(0,0,0)" stroke-width="51" stroke-linejoin="round" d="M 5784,3228 L 4958,3228 4958,1577 6609,1577 6609,3228 5784,3228 Z"/>
       </g>
      </g>
      <g class="com.sun.star.drawing.CustomShape">
       <g id="id7">
        <rect class="BoundingBox" stroke="none" fill="none" x="632" y="5551" width="1704" height="1704"/>
        <path fill="none" stroke="rgb(0,0,0)" stroke-width="51" stroke-linejoin="round" d="M 1484,7228 L 658,7228 658,5577 2309,5577 2309,7228 1484,7228 Z"/>
       </g>
      </g>
      <g class="com.sun.star.drawing.CustomShape">
       <g id="id8">
        <rect class="BoundingBox" stroke="none" fill="none" x="4932" y="5551" width="1704" height="1704"/>
        <path fill="none" stroke="rgb(0,0,0)" stroke-width="51" stroke-linejoin="round" d="M 5784,7228 L 4958,7228 4958,5577 6609,5577 6609,7228 5784,7228 Z"/>
       </g>
      </g>
      <g class="com.sun.star.drawing.CustomShape">
       <g id="id9">
        <rect class="BoundingBox" stroke="none" fill="none" x="632" y="5551" width="1704" height="1704"/>
        <path fill="none" stroke="rgb(0,0,0)" stroke-width="51" stroke-linejoin="round" d="M 1484,7228 L 658,7228 658,5577 2309,5577 2309,7228 1484,7228 Z"/>
       </g>
      </g>
      <g class="com.sun.star.drawing.CustomShape">
       <g id="id10">
        <rect class="BoundingBox" stroke="none" fill="none" x="4932" y="5551" width="1704" height="1704"/>
        <path fill="none" stroke="rgb(0,0,0)" stroke-width="51" stroke-linejoin="round" d="M 5784,7228 L 4958,7228 4958,5577 6609,5577 6609,7228 5784,7228 Z"/>
       </g>
      </g>
      <g class="com.sun.star.drawing.LineShape">
       <g id="id11">
        <rect class="BoundingBox" stroke="none" fill="none" x="1495" y="3203" width="4341" height="2402"/>
        <path fill="none" stroke="rgb(0,0,0)" stroke-width="51" stroke-linejoin="round" d="M 1521,3229 L 5809,5578"/>
       </g>
      </g>
      <g class="com.sun.star.drawing.LineShape">
       <g id="id12">
        <rect class="BoundingBox" stroke="none" fill="none" x="1495" y="3203" width="4371" height="2402"/>
        <path fill="none" stroke="rgb(0,0,0)" stroke-width="51" stroke-linejoin="round" d="M 5839,3229 L 1521,5578"/>
       </g>
      </g>
      <g class="com.sun.star.drawing.LineShape">
       <g id="id13">
        <rect class="BoundingBox" stroke="none" fill="none" x="1522" y="3230" width="53" height="2339"/>
        <path fill="none" stroke="rgb(0,0,0)" stroke-width="51" stroke-linejoin="round" d="M 1548,3256 L 1548,5542"/>
       </g>
      </g>
      <g class="com.sun.star.drawing.LineShape">
       <g id="id14">
        <rect class="BoundingBox" stroke="none" fill="none" x="5780" y="3230" width="53" height="2339"/>
        <path fill="none" stroke="rgb(0,0,0)" stroke-width="51" stroke-linejoin="round" d="M 5806,3256 L 5806,5542"/>
       </g>
      </g>
      <g class="com.sun.star.drawing.LineShape">
       <g id="id15">
        <rect class="BoundingBox" stroke="none" fill="none" x="2284" y="2314" width="2693" height="53"/>
        <path fill="none" stroke="rgb(0,0,0)" stroke-width="51" stroke-linejoin="round" d="M 2310,2340 L 4950,2340"/>
       </g>
      </g>
      <g class="com.sun.star.drawing.LineShape">
       <g id="id16">
        <rect class="BoundingBox" stroke="none" fill="none" x="2284" y="6314" width="2693" height="53"/>
        <path fill="none" stroke="rgb(0,0,0)" stroke-width="51" stroke-linejoin="round" d="M 2310,6340 L 4950,6340"/>
       </g>
      </g>
      <g class="com.sun.star.drawing.CustomShape">
       <g id="id17">
        <rect class="BoundingBox" stroke="none" fill="none" x="11232" y="1551" width="1704" height="1704"/>
        <path fill="none" stroke="rgb(0,0,0)" stroke-width="51" stroke-linejoin="round" d="M 12084,3228 L 11258,3228 11258,1577 12909,1577 12909,3228 12084,3228 Z"/>
       </g>
      </g>
      <g class="com.sun.star.drawing.CustomShape">
       <g id="id18">
        <rect class="BoundingBox" stroke="none" fill="none" x="8432" y="5551" width="1704" height="1704"/>
        <path fill="none" stroke="rgb(0,0,0)" stroke-width="51" stroke-linejoin="round" d="M 9284,7228 L 8458,7228 8458,5577 10109,5577 10109,7228 9284,7228 Z"/>
       </g>
      </g>
      <g class="com.sun.star.drawing.CustomShape">
       <g id="id19">
        <rect class="BoundingBox" stroke="none" fill="none" x="14032" y="5551" width="1704" height="1704"/>
        <path fill="none" stroke="rgb(0,0,0)" stroke-width="51" stroke-linejoin="round" d="M 14884,7228 L 14058,7228 14058,5577 15709,5577 15709,7228 14884,7228 Z"/>
       </g>
      </g>
      <g class="com.sun.star.drawing.CustomShape">
       <g id="id20">
        <rect class="BoundingBox" stroke="none" fill="none" x="11327" y="4091" width="1451" height="1451"/>
        <path fill="none" stroke="rgb(0,0,0)" stroke-width="51" stroke-linejoin="round" d="M 12751,4816 C 12751,4939 12719,5059 12657,5166 12596,5272 12508,5360 12402,5421 12295,5483 12175,5515 12052,5515 11929,5515 11809,5483 11703,5421 11596,5360 11508,5272 11447,5166 11385,5059 11353,4939 11353,4816 11353,4693 11385,4573 11447,4467 11508,4360 11596,4272 11703,4211 11809,4149 11929,4117 12052,4117 12175,4117 12295,4149 12402,4211 12508,4272 12596,4360 12657,4466 12719,4573 12751,4693 12751,4816 L 12751,4816 Z"/>
       </g>
      </g>
      <g class="com.sun.star.drawing.LineShape">
       <g id="id21">
        <rect class="BoundingBox" stroke="none" fill="none" x="12032" y="3203" width="53" height="942"/>
        <path fill="none" stroke="rgb(0,0,0)" stroke-width="51" stroke-linejoin="round" d="M 12058,3229 L 12058,4118"/>
       </g>
      </g>
      <g class="com.sun.star.drawing.LineShape">
       <g id="id22">
        <rect class="BoundingBox" stroke="none" fill="none" x="12671" y="4981" width="1415" height="624"/>
        <path fill="none" stroke="rgb(0,0,0)" stroke-width="51" stroke-linejoin="round" d="M 12697,5007 L 14059,5578"/>
       </g>
      </g>
      <g class="com.sun.star.drawing.LineShape">
       <g id="id23">
        <rect class="BoundingBox" stroke="none" fill="none" x="10101" y="4911" width="1323" height="688"/>
        <path fill="none" stroke="rgb(0,0,0)" stroke-width="51" stroke-linejoin="round" d="M 10127,5572 L 11397,4937"/>
       </g>
      </g>
     </g>
    </g>
   </g>
  </g>
 </g>
</svg>